<?xml version="1.0" encoding="utf-8"?>
<!-- Generator: Adobe Illustrator 16.0.0, SVG Export Plug-In . SVG Version: 6.00 Build 0)  -->
<!DOCTYPE svg PUBLIC "-//W3C//DTD SVG 1.1//EN" "http://www.w3.org/Graphics/SVG/1.1/DTD/svg11.dtd">
<svg version="1.1" id="Layer_1" xmlns="http://www.w3.org/2000/svg" xmlns:xlink="http://www.w3.org/1999/xlink" x="0px" y="0px"
	 width="960px" height="560px" viewBox="0 0 960 560" enable-background="new 0 0 960 560" xml:space="preserve">
<g>
	<rect x="62.25" y="159.21" transform="matrix(0.9223 -0.3864 0.3864 0.9223 -68.1061 203.4407)" width="819.482" height="223.84"/>
	<g>
		<path d="M891.824,211.207c-17.817,7.464-35.635,14.929-53.452,22.394c-44.787,18.764-89.574,37.527-134.361,56.291
			c-58.76,24.617-117.52,49.234-176.278,73.852c-59.735,25.025-119.469,50.052-179.203,75.077
			c-47.712,19.988-95.423,39.978-143.135,59.966c-22.691,9.507-45.383,19.014-68.075,28.521c-0.442,0.185-0.884,0.37-1.327,0.556
			c2.05,1.164,4.1,2.328,6.15,3.492c-18.484-44.121-36.969-88.242-55.454-132.363c-10.347-24.696-20.694-49.394-31.041-74.09
			c-1.164,2.05-2.328,4.101-3.492,6.15c17.817-7.465,35.635-14.929,53.452-22.394c44.788-18.764,89.575-37.527,134.362-56.291
			c58.76-24.617,117.519-49.234,176.279-73.852c59.734-25.026,119.469-50.051,179.203-75.077
			c47.712-19.989,95.423-39.978,143.135-59.966c22.691-9.506,45.383-19.013,68.074-28.52c0.442-0.186,0.885-0.371,1.327-0.556
			c-2.05-1.164-4.101-2.328-6.15-3.492c18.484,44.121,36.969,88.242,55.453,132.363c10.347,24.697,20.693,49.393,31.04,74.09
			c2.453,5.855,12.134,3.288,9.643-2.658c-18.484-44.121-36.969-88.242-55.453-132.363c-10.347-24.697-20.693-49.393-31.04-74.09
			c-0.941-2.248-3.409-4.641-6.15-3.492c-17.817,7.464-35.635,14.929-53.452,22.394c-44.787,18.764-89.574,37.527-134.362,56.291
			c-58.759,24.617-117.519,49.234-176.278,73.852c-59.734,25.026-119.469,50.051-179.203,75.077
			c-47.711,19.989-95.423,39.978-143.135,59.966c-22.691,9.507-45.383,19.014-68.075,28.521c-0.442,0.185-0.884,0.37-1.327,0.556
			c-2.248,0.941-4.641,3.409-3.492,6.15c18.484,44.121,36.969,88.242,55.454,132.363c10.347,24.696,20.694,49.394,31.041,74.09
			c0.942,2.248,3.41,4.641,6.15,3.492c17.817-7.465,35.635-14.929,53.452-22.394c44.787-18.764,89.574-37.527,134.362-56.291
			c58.759-24.617,117.519-49.234,176.278-73.852c59.734-25.025,119.469-50.052,179.203-75.077
			c47.712-19.988,95.423-39.978,143.135-59.966c22.691-9.506,45.383-19.013,68.074-28.52c0.442-0.186,0.885-0.371,1.327-0.556
			C900.338,218.396,897.77,208.716,891.824,211.207z"/>
	</g>
</g>
<g>
	
		<rect x="140.215" y="311.676" transform="matrix(0.9223 -0.3864 0.3864 0.9223 -138.1776 99.3446)" fill="#FFFFFF" width="75.622" height="163.41"/>
	<g>
		<path fill="#FFFFFF" d="M243.142,449.309c-23.25,9.74-46.499,19.48-69.748,29.221c2.05,1.164,4.1,2.328,6.15,3.492
			c-19.115-45.626-38.229-91.253-57.345-136.879c-1.933-4.613-3.865-9.226-5.798-13.839c-1.164,2.05-2.328,4.101-3.492,6.15
			c23.249-9.74,46.498-19.48,69.747-29.221c-2.05-1.164-4.1-2.328-6.15-3.492c19.115,45.626,38.23,91.253,57.346,136.879
			c1.933,4.613,3.865,9.226,5.798,13.839c2.453,5.855,12.134,3.287,9.643-2.658c-19.115-45.626-38.23-91.253-57.346-136.879
			c-1.933-4.613-3.865-9.226-5.798-13.839c-0.942-2.248-3.41-4.641-6.15-3.492c-23.249,9.74-46.498,19.48-69.747,29.221
			c-2.248,0.941-4.641,3.409-3.492,6.15c19.115,45.626,38.229,91.253,57.345,136.879c1.933,4.613,3.865,9.226,5.798,13.839
			c0.942,2.248,3.41,4.641,6.15,3.492c23.25-9.74,46.499-19.48,69.748-29.221C251.655,456.498,249.087,446.817,243.142,449.309z"/>
	</g>
</g>
<rect x="117.396" y="376.882" transform="matrix(0.9223 -0.3864 0.3864 0.9223 -108.6121 229.4345)" fill="#FFFFFF" stroke="#000000" stroke-width="3" stroke-miterlimit="10" width="798" height="16"/>
<g>
	
		<rect x="137.482" y="312.689" transform="matrix(0.9223 -0.3864 0.3864 0.9223 -138.573 99.3567)" fill="#FFFFFF" width="80.737" height="163.343"/>
	<g>
		<path fill="#FFFFFF" d="M245.312,449.268c-24.822,10.399-49.644,20.799-74.466,31.198c2.05,1.164,4.1,2.328,6.15,3.492
			c-19.107-45.607-38.214-91.215-57.322-136.822c-1.932-4.611-3.863-9.222-5.795-13.833c-1.164,2.05-2.328,4.101-3.492,6.15
			c24.822-10.399,49.645-20.799,74.467-31.198c-2.05-1.164-4.1-2.328-6.15-3.492c19.107,45.607,38.214,91.215,57.321,136.822
			c1.932,4.611,3.863,9.222,5.795,13.833c2.453,5.855,12.134,3.288,9.643-2.658c-19.107-45.607-38.214-91.215-57.321-136.822
			c-1.932-4.611-3.863-9.222-5.795-13.833c-0.942-2.248-3.41-4.641-6.15-3.492c-24.822,10.399-49.645,20.799-74.467,31.198
			c-2.248,0.941-4.641,3.41-3.492,6.15c19.107,45.607,38.214,91.215,57.322,136.822c1.932,4.611,3.863,9.222,5.795,13.833
			c0.942,2.248,3.41,4.641,6.15,3.492c24.822-10.399,49.644-20.799,74.466-31.198C253.826,456.457,251.258,446.776,245.312,449.268z
			"/>
	</g>
</g>
<g>
	
		<rect x="321.549" y="234.306" transform="matrix(0.9223 -0.3864 0.3864 0.9223 -93.7491 165.5583)" fill="#FFFFFF" width="86.793" height="163.342"/>
	<g>
		<path fill="#FFFFFF" d="M435.201,369.714c-26.684,11.179-53.368,22.358-80.052,33.537c2.05,1.164,4.1,2.328,6.15,3.492
			c-19.107-45.607-38.214-91.214-57.322-136.821c-1.932-4.611-3.863-9.222-5.795-13.833c-1.164,2.05-2.328,4.1-3.492,6.15
			c26.685-11.179,53.369-22.358,80.053-33.538c-2.05-1.164-4.1-2.328-6.15-3.492c19.107,45.607,38.214,91.214,57.321,136.822
			c1.932,4.611,3.863,9.222,5.795,13.833c2.453,5.855,12.134,3.288,9.643-2.658c-19.107-45.607-38.214-91.215-57.321-136.822
			c-1.932-4.611-3.863-9.222-5.795-13.833c-0.942-2.248-3.41-4.641-6.15-3.492c-26.685,11.179-53.369,22.358-80.053,33.538
			c-2.248,0.942-4.641,3.41-3.492,6.15c19.107,45.607,38.214,91.214,57.322,136.821c1.932,4.611,3.863,9.222,5.795,13.833
			c0.942,2.248,3.41,4.641,6.15,3.492c26.684-11.179,53.368-22.358,80.052-33.537C443.715,376.903,441.147,367.223,435.201,369.714z
			"/>
	</g>
</g>
<g>
	
		<rect x="530.055" y="146.952" transform="matrix(0.9223 -0.3864 0.3864 0.9223 -43.8007 239.3434)" fill="#FFFFFF" width="86.792" height="163.342"/>
	<g>
		<path fill="#FFFFFF" d="M643.706,282.36c-26.684,11.179-53.367,22.358-80.051,33.537c2.05,1.164,4.101,2.328,6.15,3.492
			c-19.107-45.607-38.214-91.214-57.321-136.821c-1.932-4.611-3.864-9.222-5.796-13.833c-1.164,2.05-2.328,4.1-3.492,6.15
			c26.684-11.179,53.368-22.358,80.052-33.538c-2.05-1.164-4.101-2.328-6.15-3.492c19.106,45.607,38.214,91.214,57.32,136.822
			c1.933,4.611,3.864,9.222,5.796,13.833c2.453,5.855,12.134,3.288,9.643-2.658c-19.106-45.607-38.214-91.214-57.32-136.822
			c-1.933-4.611-3.864-9.222-5.796-13.833c-0.941-2.248-3.41-4.641-6.15-3.492c-26.684,11.179-53.368,22.358-80.052,33.538
			c-2.248,0.942-4.641,3.41-3.492,6.15c19.107,45.607,38.214,91.214,57.321,136.821c1.932,4.611,3.864,9.222,5.796,13.833
			c0.941,2.248,3.409,4.641,6.15,3.492c26.684-11.179,53.367-22.358,80.051-33.537C652.22,289.55,649.652,279.869,643.706,282.36z"
			/>
	</g>
</g>
<g>
	
		<rect x="722.887" y="63.979" transform="matrix(0.9223 -0.3864 0.3864 0.9223 3.2387 307.411)" fill="#FFFFFF" width="86.793" height="163.341"/>
	<g>
		<path fill="#FFFFFF" d="M836.538,199.386c-26.684,11.179-53.368,22.358-80.052,33.538c2.05,1.164,4.101,2.328,6.15,3.492
			c-19.106-45.607-38.214-91.214-57.32-136.821c-1.933-4.611-3.864-9.222-5.796-13.833c-1.164,2.05-2.328,4.1-3.492,6.15
			c26.684-11.179,53.368-22.358,80.052-33.538c-2.05-1.164-4.101-2.328-6.15-3.492c19.106,45.607,38.214,91.214,57.32,136.821
			c1.933,4.611,3.864,9.222,5.796,13.833c2.453,5.855,12.134,3.288,9.643-2.658c-19.106-45.607-38.214-91.214-57.32-136.821
			c-1.933-4.611-3.864-9.222-5.796-13.833c-0.941-2.248-3.41-4.641-6.15-3.492c-26.684,11.179-53.368,22.358-80.052,33.538
			c-2.248,0.942-4.641,3.41-3.492,6.15c19.106,45.607,38.214,91.214,57.32,136.821c1.933,4.611,3.864,9.222,5.796,13.833
			c0.941,2.248,3.41,4.641,6.15,3.492c26.684-11.179,53.368-22.358,80.052-33.538C845.052,206.576,842.484,196.895,836.538,199.386z
			"/>
	</g>
</g>
</svg>
