<?xml version="1.0" encoding="utf-8"?>
<!-- Generator: Adobe Illustrator 16.0.0, SVG Export Plug-In . SVG Version: 6.00 Build 0)  -->
<!DOCTYPE svg PUBLIC "-//W3C//DTD SVG 1.1//EN" "http://www.w3.org/Graphics/SVG/1.1/DTD/svg11.dtd">
<svg version="1.1" id="Layer_1" xmlns="http://www.w3.org/2000/svg" xmlns:xlink="http://www.w3.org/1999/xlink" x="0px" y="0px"
	 width="960px" height="960px" viewBox="0 0 960 960" enable-background="new 0 0 960 960" xml:space="preserve">
<g>
	<g>
		<path fill="#536D76" stroke="#536D76" stroke-miterlimit="10" d="M912.5,624.5c0,6.627-5.373,12-12,12h-843
			c-6.627,0-12-5.373-12-12v-301c0-6.627,5.373-12,12-12h843c6.627,0,12,5.373,12,12V624.5z"/>
	</g>
	<path fill="#F6F9FA" stroke="#F6F9FA" stroke-miterlimit="10" d="M199.5,534.5c0,6.627-5.373,12-12,12h-66c-6.627,0-12-5.373-12-12
		v-122c0-6.627,5.373-12,12-12h66c6.627,0,12,5.373,12,12V534.5z"/>
	<path fill="#F6F9FA" stroke="#F6F9FA" stroke-miterlimit="10" d="M521.5,534.5c0,6.627-5.373,12-12,12h-66c-6.627,0-12-5.373-12-12
		v-122c0-6.627,5.373-12,12-12h66c6.627,0,12,5.373,12,12V534.5z"/>
	<path fill="#F6F9FA" stroke="#F6F9FA" stroke-miterlimit="10" d="M843.5,534.5c0,6.627-5.373,12-12,12h-66c-6.627,0-12-5.373-12-12
		v-122c0-6.627,5.373-12,12-12h66c6.627,0,12,5.373,12,12V534.5z"/>
	<circle fill="#F6F9FA" stroke="#F6F9FA" stroke-miterlimit="10" cx="46.729" cy="480.659" r="22.5"/>
	<circle fill="#F6F9FA" stroke="#F6F9FA" stroke-miterlimit="10" cx="913.229" cy="473.159" r="22.5"/>
	<g>
		<path fill="#F6F9FA" stroke="#F6F9FA" stroke-miterlimit="10" d="M379.5,616.5c0-6.075-4.925-11-11-11l0,0
			c-6.075,0-11,4.925-11,11v18c0,6.075,4.925,11,11,11l0,0c6.075,0,11-4.925,11-11V616.5z"/>
		<path fill="#F6F9FA" stroke="#F6F9FA" stroke-miterlimit="10" d="M268.5,634.5c0,6.075-4.925,11-11,11l0,0
			c-6.075,0-11-4.925-11-11v-18c0-6.075,4.925-11,11-11l0,0c6.075,0,11,4.925,11,11V634.5z"/>
		<path fill="#F6F9FA" stroke="#F6F9FA" stroke-miterlimit="10" d="M157.5,634.5c0,6.075-4.925,11-11,11l0,0
			c-6.075,0-11-4.925-11-11v-18c0-6.075,4.925-11,11-11l0,0c6.075,0,11,4.925,11,11V634.5z"/>
		<path fill="#F6F9FA" stroke="#F6F9FA" stroke-miterlimit="10" d="M490.5,634.5c0,6.075-4.925,11-11,11l0,0
			c-6.075,0-11-4.925-11-11v-18c0-6.075,4.925-11,11-11l0,0c6.075,0,11,4.925,11,11V634.5z"/>
		<path fill="#F6F9FA" stroke="#F6F9FA" stroke-miterlimit="10" d="M602.5,636.5c0,6.075-4.925,11-11,11l0,0
			c-6.075,0-11-4.925-11-11v-18c0-6.075,4.925-11,11-11l0,0c6.075,0,11,4.925,11,11V636.5z"/>
		<path fill="#F6F9FA" stroke="#F6F9FA" stroke-miterlimit="10" d="M713.5,636.5c0,6.075-4.925,11-11,11l0,0
			c-6.075,0-11-4.925-11-11v-18c0-6.075,4.925-11,11-11l0,0c6.075,0,11,4.925,11,11V636.5z"/>
		<path fill="#F6F9FA" stroke="#F6F9FA" stroke-miterlimit="10" d="M824.5,634.5c0,6.075-4.925,11-11,11l0,0
			c-6.075,0-11-4.925-11-11v-18c0-6.075,4.925-11,11-11l0,0c6.075,0,11,4.925,11,11V634.5z"/>
	</g>
</g>
</svg>
