<?xml version="1.0" encoding="utf-8"?>
<!-- Generator: Adobe Illustrator 15.0.0, SVG Export Plug-In . SVG Version: 6.00 Build 0)  -->
<!DOCTYPE svg PUBLIC "-//W3C//DTD SVG 1.1//EN" "http://www.w3.org/Graphics/SVG/1.1/DTD/svg11.dtd">
<svg version="1.1" id="Layer_1" xmlns="http://www.w3.org/2000/svg" xmlns:xlink="http://www.w3.org/1999/xlink" x="0px" y="0px"
	 width="64px" height="64px" viewBox="0 0 64 64" enable-background="new 0 0 64 64" xml:space="preserve">
<g>
	<g>
		<path d="M46.4,29.128h0.657V7.756h-6.486V2.918H19.334l0.084,0.852c0,0.936-0.764,1.695-1.691,1.697l-0.785-0.052v53.361
			l0.697-0.037c0.039,0,0.078-0.006,0.083-0.009c0.935,0,1.695,0.759,1.695,1.694v0.658h21.152v-3.371h6.486V34.873H46.4
			c-1.584,0-2.872-1.291-2.872-2.873C43.528,30.415,44.816,29.128,46.4,29.128z M35.04,56.566H21.708v-5.891H35.04V56.566z
			 M35.04,48.746H21.708v-5.891H35.04V48.746z M35.04,40.546H21.708v-5.894H35.04V40.546z M35.04,29.67H21.708V23.78H35.04V29.67z
			 M35.04,21.85H21.708v-5.892H35.04V21.85z M35.04,13.648H21.708V7.756H35.04V13.648z M45.743,36.133v20.264h-5.172v-3.834h3.815
			v-1.314h-3.815v-1.452h3.815v-1.312h-3.815v-1.407h3.815v-1.314h-3.815v-1.26h3.815v-1.314h-3.815v-1.452h3.815v-1.314h-3.815
			v-1.403h3.815v-1.314h-3.815v-10.75h3.815v-1.314h-3.815v-1.453h3.815v-1.313h-3.815v-1.405h3.815v-1.313h-3.815v-1.263h3.815
			v-1.314h-3.815v-1.451h3.815v-1.314h-3.815v-1.404h3.815v-1.314h-3.815V9.072h5.172v18.791c-2.029,0.319-3.531,2.055-3.531,4.138
			C42.212,34.082,43.714,35.816,45.743,36.133z"/>
	</g>
</g>
</svg>
